<?xml version="1.0" standalone="no"?>
<!DOCTYPE svg PUBLIC "-//W3C//DTD SVG 20010904//EN"
 "http://www.w3.org/TR/2001/REC-SVG-20010904/DTD/svg10.dtd">
<svg version="1.0" xmlns="http://www.w3.org/2000/svg"
 width="50px" height="50px" viewBox="0 0 500.000000 500.000000"
 preserveAspectRatio="xMidYMid meet">

<g transform="translate(0.000000,500.000000) scale(0.100000,-0.100000)"
fill="#000000" stroke="none">
<path d="M450 2993 c-66 -24 -144 -107 -164 -173 -20 -68 -20 -132 0 -200 22
-74 100 -152 174 -174 146 -43 287 5 352 122 28 49 51 152 41 180 -4 9 -45 12
-159 12 l-154 0 0 -50 0 -49 90 -3 90 -3 -18 -34 c-35 -66 -140 -92 -218 -55
-108 52 -111 248 -4 305 65 35 158 21 204 -30 16 -17 31 -21 87 -21 l68 0 -10
28 c-17 48 -67 100 -125 128 -71 35 -185 42 -254 17z"/>
<path d="M1279 2994 c-56 -17 -132 -82 -162 -138 -32 -59 -32 -212 0 -271 56
-105 165 -162 292 -153 167 12 271 123 271 288 0 93 -27 157 -93 217 -74 68
-198 91 -308 57z m199 -131 c50 -37 72 -81 72 -143 0 -63 -22 -106 -73 -144
-40 -30 -144 -30 -183 0 -61 45 -85 109 -70 188 8 43 49 94 91 112 42 20 129
13 163 -13z"/>
<path d="M1950 2808 c0 -111 5 -210 11 -233 15 -52 82 -119 134 -134 130 -36
250 12 299 119 17 39 20 71 24 243 l4 197 -65 0 -66 0 -3 -189 c-3 -174 -5
-192 -24 -218 -12 -15 -33 -32 -47 -37 -39 -14 -96 4 -121 37 -19 26 -21 44
-24 218 l-4 189 -59 0 -59 0 0 -192z"/>
<path d="M2600 2905 l0 -65 620 0 620 0 0 65 0 65 -620 0 -620 0 0 -65z"/>
<path d="M2630 2340 l0 -280 60 0 60 0 0 86 0 85 46 -3 47 -3 46 -82 46 -83
74 0 c85 0 83 -8 13 109 l-51 84 31 21 c46 31 73 90 71 157 -1 65 -19 106 -63
142 -45 38 -90 47 -242 47 l-138 0 0 -280z m286 146 c36 -30 39 -86 6 -119
-18 -17 -36 -22 -97 -25 l-75 -4 0 86 0 86 69 0 c59 0 74 -4 97 -24z"/>
<path d="M3410 2354 c-58 -147 -106 -273 -108 -281 -3 -11 10 -13 63 -11 l67
3 18 45 18 45 109 3 110 3 21 -51 21 -50 65 0 c37 0 66 3 66 8 0 4 -49 129
-108 277 l-107 270 -65 3 -65 2 -105 -266z m208 8 c18 -48 32 -90 32 -94 0 -5
-33 -8 -74 -8 l-74 0 37 95 c20 52 38 95 41 95 3 0 20 -40 38 -88z"/>
<path d="M4050 2613 c0 -4 47 -130 104 -278 l104 -270 63 -3 64 -3 89 233 c50
128 98 254 108 281 l18 47 -68 0 -69 0 -69 -185 c-37 -101 -70 -182 -72 -180
-3 2 -35 84 -72 182 l-67 178 -67 3 c-36 2 -66 -1 -66 -5z"/>
<path d="M1200 2120 l0 -70 618 2 617 3 3 68 3 67 -621 0 -620 0 0 -70z"/>
</g>
</svg>
